<?xml version="1.0" encoding="UTF-8"?>
<svg width="32px" height="32px" viewBox="0 0 32 32" version="1.1" xmlns="http://www.w3.org/2000/svg" xmlns:xlink="http://www.w3.org/1999/xlink">
    <title>-mockplus-</title>
    <g id="帮助中心" stroke="none" stroke-width="1" fill="none" fill-rule="evenodd">
        <g id="横版默认-帮助中心-在线客服-是否解决-弹框4" transform="translate(-813.000000, -461.000000)">
            <g id="评价" transform="translate(0.000000, 96.000000)">
                <g id="-mockplus-" transform="translate(813.000000, 358.000000)">
                    <g id="ai-Checkbox" transform="translate(0.000000, 7.000000)">
                        <rect id="矩形" x="0" y="0" width="32" height="32"></rect>
                        <path d="M28,3 L4,3 C3.44771525,3 3,3.44771525 3,4 L3,28 C3,28.5522847 3.44771525,29 4,29 L28,29 C28.5522847,29 29,28.5522847 29,28 L29,4 C29,3.44771525 28.5522847,3 28,3 Z" id="路径" fill="#FFFFFF"></path>
                        <path d="M31,3 L31,29 C31,30.1045695 30.1045695,31 29,31 L3,31 C1.8954305,31 1,30.1045695 1,29 L1,3 C1,1.8954305 1.8954305,1 3,1 L29,1 C30.1045695,1 31,1.8954305 31,3 Z M28,3 L4,3 C3.44771525,3 3,3.44771525 3,4 L3,28 C3,28.5522847 3.44771525,29 4,29 L28,29 C28.5522847,29 29,28.5522847 29,28 L29,4 C29,3.44771525 28.5522847,3 28,3 Z" fill="#C7CCD1"></path>
                    </g>
                </g>
            </g>
        </g>
    </g>
</svg>