<?xml version="1.0" encoding="UTF-8"?>
<svg width="44px" height="44px" viewBox="0 0 44 44" version="1.1" xmlns="http://www.w3.org/2000/svg" xmlns:xlink="http://www.w3.org/1999/xlink">
    <title>-mockplus-</title>
    <g id="帮助中心" stroke="none" stroke-width="1" fill="none" fill-rule="evenodd">
        <g id="竖版默认-在线客服-FAQ详情" transform="translate(-682.000000, -546.000000)">
            <g id="标题" transform="translate(0.000000, 530.000000)">
                <g id="ai-diff" transform="translate(682.000000, 16.000000)">
                    <rect id="矩形" x="0" y="0" width="44" height="44"></rect>
                    <path d="M34.6395337,9.36046629 C35.1765046,9.89743719 35.1765046,10.768039 34.6395337,11.3050099 L23.9445436,22 L34.6395337,32.6949901 C35.1765046,33.231961 35.1765046,34.1025628 34.6395337,34.6395337 C34.1025628,35.1765046 33.231961,35.1765046 32.6949901,34.6395337 L22,23.9445436 L11.3050099,34.6395337 C10.768039,35.1765046 9.89743719,35.1765046 9.36046629,34.6395337 C8.82349539,34.1025628 8.82349539,33.231961 9.36046629,32.6949901 L20.0554564,22 L9.36046629,11.3050099 C8.82349539,10.768039 8.82349539,9.89743719 9.36046629,9.36046629 C9.89743719,8.82349539 10.768039,8.82349539 11.3050099,9.36046629 L22,20.0554564 L32.6949901,9.36046629 C33.231961,8.82349539 34.1025628,8.82349539 34.6395337,9.36046629 Z" id="路径" fill="#1F2428"></path>
                </g>
            </g>
        </g>
    </g>
</svg>