<?xml version="1.0" encoding="UTF-8"?>
<svg width="32px" height="32px" viewBox="0 0 32 32" version="1.1" xmlns="http://www.w3.org/2000/svg" xmlns:xlink="http://www.w3.org/1999/xlink">
    <title>-mockplus-</title>
    <g id="帮助中心" stroke="none" stroke-width="1" fill="none" fill-rule="evenodd">
        <g id="竖版默认-帮助中心-在线客服-是否解决-弹框4" transform="translate(-48.000000, -845.000000)">
            <g id="评价" transform="translate(0.000000, 530.000000)">
                <g id="编组-2" transform="translate(48.000000, 308.000000)">
                    <g id="ai-Checkbox" transform="translate(0.000000, 7.000000)">
                        <rect id="矩形" x="0" y="0" width="32" height="32"></rect>
                        <path d="M29,1 C30.1045695,1 31,1.8954305 31,3 L31,29 C31,30.1045695 30.1045695,31 29,31 L3,31 C1.8954305,31 1,30.1045695 1,29 L1,3 C1,1.8954305 1.8954305,1 3,1 L29,1 Z M27.4086121,8 L28,9.50111336 L26.7854213,10.7059169 L26.7854213,10.7059169 L24.2996991,13.2108693 L24.2996991,13.2108693 L22.2339079,15.3256993 L22.2339079,15.3256993 L20.5806112,17.0398886 L20.5806112,17.0398886 L18.8167644,18.8913276 L18.8167644,18.8913276 L18.0876952,19.6639266 L18.0876952,19.6639266 L16.6008843,21.2539543 L16.6008843,21.2539543 L15.0899834,22.8915524 L15.0899834,22.8915524 L14.5434296,23.4899128 C14.0878033,23.9901349 13.6320402,24.4940903 13.178202,25 L5,16.1288795 L6.46676932,14.6958129 L13.2151703,20.5154269 L14.7649342,19.087583 L14.7649342,19.087583 L16.5715969,17.4525545 L16.5715969,17.4525545 L19.0418159,15.2505292 L19.0418159,15.2505292 L20.3788699,14.0719102 L20.3788699,14.0719102 L23.1154926,11.6847228 L23.1154926,11.6847228 L24.8159717,10.2169077 L24.8159717,10.2169077 L27.0232509,8.32797259 C27.150877,8.21926557 27.2793315,8.10993987 27.4086121,8 Z" fill="#1B8AFA"></path>
                    </g>
                </g>
            </g>
        </g>
    </g>
</svg>