<?xml version="1.0" encoding="UTF-8"?>
<svg width="44px" height="44px" viewBox="0 0 44 44" version="1.1" xmlns="http://www.w3.org/2000/svg" xmlns:xlink="http://www.w3.org/1999/xlink">
    <title>-mockplus-</title>
    <g id="帮助中心" stroke="none" stroke-width="1" fill="none" fill-rule="evenodd">
        <g id="竖版默认-帮助中心-在线客服-是否解决-弹框5" transform="translate(-690.000000, -77.000000)">
            <g id="-mockplus-" transform="translate(0.000000, 61.000000)">
                <g id="ai-customerService" transform="translate(690.000000, 16.000000)">
                    <rect id="矩形" x="0" y="0" width="44" height="44"></rect>
                    <path d="M21.6967215,1.375 C30.1864559,1.375 37.2670802,7.15998546 39.119761,14.9173127 L39.2002226,14.9131864 L39.2002226,14.9131864 C41.0164274,14.9131864 42.5017938,16.2707649 42.6177172,17.9856489 L42.625,18.201798 L42.625,24.6944333 C42.625,26.0602181 41.7584901,27.2279434 40.5268081,27.7272182 C39.1321396,35.1688882 32.4476343,39.9594503 24.1126338,40.613459 C23.7309568,41.7357957 22.6313144,42.5507277 21.3150445,42.5507277 C19.6872437,42.5507277 18.3647844,41.3046039 18.3647844,39.7675803 C18.3647844,38.2284935 19.6872437,36.9823697 21.3150445,36.9823697 C22.5026198,36.9663183 23.5840277,37.6639484 24.0589927,38.7525258 C31.2592778,38.1542213 37.073147,34.2095379 38.5049515,27.9108358 C37.611621,27.7334076 36.8441408,27.2258803 36.3510553,26.5202936 C36.1967282,26.9858997 35.6350197,27.405629 34.7690409,27.7758541 C32.3357054,32.328131 27.5373341,35.425757 22.0154734,35.425757 L20.9834497,35.425757 C15.6652443,35.425757 11.0181454,32.5524084 8.50989393,28.2734523 C7.86288123,27.9761577 7.43263177,27.6305364 7.27758327,27.2341327 C6.66690007,27.9624137 5.75087526,28.4369311 4.71106332,28.4369311 C2.94348619,28.4369311 1.49991541,27.0973257 1.38268655,25.4022924 L1.375,25.1792663 L1.375,18.7588401 C1.375,17.1557967 2.56335651,15.8292113 4.12307444,15.5568796 C5.72818094,7.48183204 12.9738546,1.375 21.6967215,1.375 Z M26.7576219,27.9304333 L26.6096043,28.1124986 L26.6096043,28.1124986 L26.5186173,28.2092853 L26.5186173,28.2092853 L26.3911889,28.3284137 L26.3911889,28.3284137 L26.2239447,28.4652598 L26.2239447,28.4652598 L26.0135103,28.6151996 C25.4306247,29.002563 24.4111966,29.4693305 22.7179654,29.690379 C22.243448,29.7522725 21.7833725,29.7852825 21.3459913,29.7852825 C20.0165175,29.7852825 19.1289637,29.4941351 18.629854,29.2594347 L18.4124219,29.1483977 L18.4124219,29.1483977 L18.258245,29.0564238 L18.258245,29.0564238 L18.1337151,28.9682874 L18.1337151,28.9682874 C18.0196639,28.8723294 17.8536217,28.8705998 17.7375963,28.9641611 C17.6234631,29.0565663 17.5968323,29.2199019 17.6757027,29.343775 C18.6707864,30.8718412 20.3704264,31.7938377 22.1939332,31.7947603 C22.4023082,31.7947603 22.6148095,31.7823816 22.8273107,31.7596873 C24.8718616,31.5224286 26.6090077,30.1401389 27.2485746,28.2358801 C27.2957931,28.0925992 27.2247906,27.9371128 27.0855882,27.8789605 C26.9731948,27.8300715 26.8457177,27.8528601 26.7576219,27.9304333 Z M14.7913077,16.8493309 C13.6513658,16.8493309 12.7272604,17.7734364 12.7272604,18.9133782 C12.7272604,20.0533201 13.6513658,20.9774256 14.7913077,20.9774256 C15.9312496,20.9774256 16.8553551,20.0533201 16.8553551,18.9133782 C16.8553551,17.7734364 15.9312496,16.8493309 14.7913077,16.8493309 Z M28.2076154,16.8493309 C27.0676736,16.8493309 26.1435681,17.7734364 26.1435681,18.9133782 C26.1435681,20.0533201 27.0676736,20.9774256 28.2076154,20.9774256 C29.3475573,20.9774256 30.2716628,20.0533201 30.2716628,18.9133782 C30.2716628,17.7734364 29.3475573,16.8493309 28.2076154,16.8493309 Z M21.6967215,4.22210413 C14.2963139,4.22210413 8.16059816,9.46242624 6.91860057,16.3553066 C7.01503399,16.4420967 7.11522364,16.5288868 7.20551395,16.62348 C9.04965372,10.7717809 14.5210854,6.52909419 20.9834497,6.52909419 L22.0154734,6.52909419 C27.2936923,6.52909419 31.9108586,9.35939692 34.43209,13.5851201 C35.120177,14.5722872 35.6909572,15.6429107 36.1241123,16.778246 C36.2169526,16.5925653 36.3345504,16.4213264 36.4604006,16.2562769 C35.1771406,9.41084824 29.0620561,4.22210413 21.6967215,4.22210413 Z" fill="#1B8AFA"></path>
                </g>
            </g>
        </g>
    </g>
</svg>