<?xml version="1.0" encoding="UTF-8"?>
<svg width="32px" height="32px" viewBox="0 0 32 32" version="1.1" xmlns="http://www.w3.org/2000/svg" xmlns:xlink="http://www.w3.org/1999/xlink">
    <title>-mockplus-</title>
    <g id="设计稿" stroke="none" stroke-width="1" fill="none" fill-rule="evenodd">
        <g id="用户输入-日期选择" transform="translate(-48.000000, -1519.000000)">
            <g id="-mockplus-" transform="translate(0.000000, 1486.000000)">
                <g id="-mockplus-" transform="translate(24.000000, 11.000000)">
                    <g id="ai-date" transform="translate(24.000000, 22.000000)">
                        <rect id="矩形" x="0" y="0" width="32" height="32"></rect>
                        <path d="M10,1 L10,4 L22,4 L22,1 L24,1 L24,4 L31,4 L31,31 L1,31 L1,4 L8,4 L8,1 L10,1 Z M29,13 L3,13 L3,29 L29,29 L29,13 Z M11,23 L11,25 L5,25 L5,23 L11,23 Z M19,23 L19,25 L13,25 L13,23 L19,23 Z M27,23 L27,25 L21,25 L21,23 L27,23 Z M11,17 L11,19 L5,19 L5,17 L11,17 Z M19,17 L19,19 L13,19 L13,17 L19,17 Z M27,17 L27,19 L21,19 L21,17 L27,17 Z M8,6 L3,6 L3,11 L29,11 L29,6 L24,6 L24,9 L22,9 L22,6 L10,6 L10,9 L8,9 L8,6 Z" fill="#1B8AFA"></path>
                    </g>
                </g>
            </g>
        </g>
    </g>
</svg>