<?xml version="1.0" encoding="UTF-8"?>
<svg width="44px" height="44px" viewBox="0 0 44 44" version="1.1" xmlns="http://www.w3.org/2000/svg" xmlns:xlink="http://www.w3.org/1999/xlink">
    <title>-mockplus-</title>
    <g id="帮助中心" stroke="none" stroke-width="1" fill="none" fill-rule="evenodd">
        <g id="竖版默认-帮助中心-在线客服-运营" transform="translate(-682.000000, -77.000000)">
            <g id="icon-help-filling" transform="translate(682.000000, 77.000000)">
                <rect id="矩形" x="0" y="0" width="44" height="44"></rect>
                <path d="M22,1.375 C33.390873,1.375 42.625,10.609127 42.625,22 C42.625,33.390873 33.390873,42.625 22,42.625 C10.609127,42.625 1.375,33.390873 1.375,22 C1.375,10.609127 10.609127,1.375 22,1.375 Z M21.9812925,28.875 C21.2329932,28.875 20.5595238,29.1057692 20.0357143,29.6442308 C19.5119048,30.1442308 19.25,30.7980769 19.25,31.6057692 C19.25,32.375 19.5119048,33.0288462 20.0357143,33.5673077 C20.5595238,34.1057692 21.2329932,34.375 21.9812925,34.375 C22.7295918,34.375 23.4030612,34.1057692 23.9268707,33.6057692 C24.4506803,33.0673077 24.75,32.4134615 24.75,31.6057692 C24.75,30.7980769 24.4880952,30.1442308 23.9642857,29.6442308 C23.4404762,29.1057692 22.7670068,28.875 21.9812925,28.875 Z M22.3824503,9.625 C19.6870861,9.625 17.5745033,10.3319209 16.044702,11.7794256 C14.5149007,13.1932674 13.75,15.1120527 13.75,17.5694444 L17.5745033,17.5694444 C17.5745033,16.0882768 17.9023179,14.9437382 18.557947,14.1358286 C19.2864238,13.1596045 20.4884106,12.6883239 22.1274834,12.6883239 C23.4387417,12.6883239 24.4950331,13.0249529 25.2235099,13.6982109 C25.9155629,14.3714689 26.2798013,15.2803672 26.2798013,16.4585687 C26.2798013,17.3338041 25.9155629,18.1417137 25.2599338,18.9159605 L24.6407285,19.5555556 C22.3824503,21.4070151 20.9983444,22.787194 20.5248344,23.7297552 C20.0149007,24.6049906 19.7963576,25.6822034 19.7963576,26.9277307 L19.7963576,27.5 L23.6937086,27.5 L23.6937086,26.9277307 C23.6937086,26.1198211 23.8758278,25.3792373 24.2764901,24.7059793 C24.6043046,24.1000471 25.1142384,23.4941149 25.8062914,22.9555085 C27.5182119,21.5753296 28.5380795,20.7000942 28.865894,20.3298023 C29.7764901,19.2525895 30.25,17.8724105 30.25,16.2229284 C30.25,14.2031544 29.5215232,12.5873352 28.0645695,11.4091337 C26.6076159,10.1972693 24.7135762,9.625 22.3824503,9.625 Z" fill="#1B8AFA"></path>
            </g>
        </g>
    </g>
</svg>