<?xml version="1.0" encoding="UTF-8"?>
<svg width="44px" height="44px" viewBox="0 0 44 44" version="1.1" xmlns="http://www.w3.org/2000/svg" xmlns:xlink="http://www.w3.org/1999/xlink">
    <title>-mockplus-</title>
    <g id="帮助中心" stroke="none" stroke-width="1" fill="none" fill-rule="evenodd">
        <g id="竖版默认-帮助中心-在线客服-运营" transform="translate(-76.000000, -77.000000)">
            <g id="-mockplus-" transform="translate(0.000000, 61.000000)">
                <g id="icon-load" transform="translate(76.000000, 16.000000)">
                    <rect id="矩形" x="0" y="0" width="44" height="44"></rect>
                    <path d="M22,1.375 C23.7723115,1.375 25.4924116,1.59854344 27.1336427,2.01897269 L26.9727954,2.01218439 C27.0935678,2.01218439 27.2107034,2.0277551 27.3223044,2.05699856 L27.5008949,2.11669201 L27.5008949,2.11669201 C27.9979846,2.32400691 28.3477954,2.81474431 28.3477954,3.38718439 C28.3477954,4.14657592 27.7321869,4.76218439 26.9727954,4.76218439 C26.8572892,4.76218439 26.7451095,4.74794198 26.6379167,4.72111752 C25.1602604,4.24245714 24.2370705,4.14714685 22.8249439,4.12903436 L22,4.125 L22,4.125 C12.1279101,4.125 4.125,12.1279101 4.125,22 C4.125,31.8720899 12.1279101,39.875 22,39.875 C31.8720899,39.875 39.875,31.8720899 39.875,22 C39.875,20.1650484 39.6584184,18.6082793 39.2326351,17.1881711 L39.2047436,17.1096738 L39.2047436,17.1096738 L39.1729459,16.9943032 L39.1729459,16.9943032 C39.1576652,16.9049459 39.1482416,16.8131916 39.1482416,16.7192363 C39.1482416,15.9598448 39.76385,15.3442363 40.5232416,15.3442363 C41.2085343,15.3442363 41.7767347,15.8455682 41.881096,16.5014852 L41.8836891,16.5004858 C42.3668705,18.251316 42.625,20.0955133 42.625,22 C42.625,33.390873 33.390873,42.625 22,42.625 C10.609127,42.625 1.375,33.390873 1.375,22 C1.375,10.609127 10.609127,1.375 22,1.375 Z" id="路径" fill="#1B8AFA"></path>
                </g>
            </g>
        </g>
    </g>
</svg>