<?xml version="1.0" encoding="UTF-8"?>
<svg width="160px" height="160px" viewBox="0 0 160 160" version="1.1" xmlns="http://www.w3.org/2000/svg" xmlns:xlink="http://www.w3.org/1999/xlink">
    <title>-mockplus-</title>
    <g id="帮助中心" stroke="none" stroke-width="1" fill="none" fill-rule="evenodd">
        <g id="竖版默认-帮助中心搜索-为空" transform="translate(-295.000000, -336.000000)">
            <g id="-mockplus-" transform="translate(239.000000, 312.000000)">
                <g id="Components/异常情况/数据为空" transform="translate(19.000000, 24.000000)">
                    <g id="ai-dataFile" transform="translate(37.000000, 0.000000)">
                        <rect id="矩形" x="0" y="0" width="160" height="160"></rect>
                        <path d="M132.5,5 C142.164983,5 150,12.8350169 150,22.5 C150,32.1649831 142.164983,40 132.5,40 L135,40 L135,155 L100.395385,130 L75.400498,155 L45.3550182,130 L15,155 L15,20 C15,11.7157288 21.7157288,5 30,5 L132.5,5 Z M48.3158431,14.9998336 L30,14.9998336 C27.4358208,14.9998336 25.3224642,16.930201 25.0336387,19.4168944 L25,20 L25,133.805 L45.3876977,117.018181 L74.78,141.47 L99.346461,116.905557 L125,135.435 L125,40 L32.5,40 L33.460176,39.9741057 C42.678612,39.4756322 50,31.842817 50,22.5 C50,19.8159413 49.3957429,17.2730144 48.3158431,14.9998336 Z M105,80 C107.761424,80 110,82.2385763 110,85 C110,87.7614237 107.761424,90 105,90 L45,90 C42.2385763,90 40,87.7614237 40,85 C40,82.2385763 42.2385763,80 45,80 L105,80 Z M105,55 C107.761424,55 110,57.2385763 110,60 C110,62.7614237 107.761424,65 105,65 L45,65 C42.2385763,65 40,62.7614237 40,60 C40,57.2385763 42.2385763,55 45,55 L105,55 Z M132.5,15 L58.96,15 L59.2175328,15.9638348 C59.7290512,18.0603781 60,20.2496308 60,22.5 C60,24.7503692 59.7290512,26.9396219 59.2165483,29.0362051 L58.96,30 L132.5,30 C136.398481,30 139.602243,27.0255596 139.965667,23.2223001 L140,22.5 C140,18.6015194 137.02556,15.3977566 133.2223,15.0343329 L132.5,15 Z" fill="#C7CCD1"></path>
                    </g>
                </g>
            </g>
        </g>
    </g>
</svg>