<?xml version="1.0" encoding="UTF-8"?>
<svg width="56px" height="56px" viewBox="0 0 56 56" version="1.1" xmlns="http://www.w3.org/2000/svg" xmlns:xlink="http://www.w3.org/1999/xlink">
    <title>按钮-选中</title>
    <g id="帮助中心" stroke="none" stroke-width="1" fill="none" fill-rule="evenodd">
        <g id="竖版默认-在线客服-订单" transform="translate(-670.000000, -1081.000000)" fill="#1B8AFA">
            <g id="列表备份" transform="translate(24.000000, 1001.000000)">
                <g id="按钮-选中" transform="translate(646.000000, 80.000000)">
                    <path d="M28,0 C43.463973,0 56,12.536027 56,28 C56,43.463973 43.463973,56 28,56 C12.536027,56 0,43.463973 0,28 C0,12.536027 12.536027,0 28,0 Z M43,18.957974 L42.2286244,17 L41.7259795,17.4277903 L38.8469196,19.8916188 L36.6289035,21.8061601 L33.0593955,24.9198829 L31.3154121,26.457212 L28.0933872,29.3294189 L25.7368708,31.4620648 L23.7154395,33.3244698 L14.9131774,25.733669 L13,27.6028863 L23.66722,39.173913 L24.5567112,38.1862916 L24.5567112,38.1862916 L25.4479516,37.2042342 L26.160848,36.4237639 L28.1315882,34.2877665 L30.0709068,32.2138172 L31.0218667,31.2060794 L33.3225364,28.7911591 L35.4790103,26.55526 L38.1735206,23.796786 L41.4157669,20.5294568 L43,18.957974 Z" id="对勾"></path>
                </g>
            </g>
        </g>
    </g>
</svg>