<?xml version="1.0" encoding="UTF-8"?>
<svg width="44px" height="44px" viewBox="0 0 44 44" version="1.1" xmlns="http://www.w3.org/2000/svg" xmlns:xlink="http://www.w3.org/1999/xlink">
    <title>-mockplus-</title>
    <g id="帮助中心" stroke="none" stroke-width="1" fill="none" fill-rule="evenodd">
        <g id="竖版默认-在线客服--FAQ图片异常" transform="translate(-24.000000, -1513.000000)">
            <g id="-mockplus-" transform="translate(0.000000, 1486.000000)">
                <g id="icon-img" transform="translate(24.000000, 27.000000)">
                    <rect id="矩形" x="0" y="0" width="44" height="44"></rect>
                    <path d="M39.875,2.75 C41.3937831,2.75 42.625,3.98121694 42.625,5.5 L42.625,38.5 C42.625,40.0187831 41.3937831,41.25 39.875,41.25 L4.125,41.25 C2.60621694,41.25 1.375,40.0187831 1.375,38.5 L1.375,5.5 C1.375,3.98121694 2.60621694,2.75 4.125,2.75 L39.875,2.75 Z M38.5,5.5 L5.5,5.5 C4.74060847,5.5 4.125,6.11560847 4.125,6.875 L4.125,28.279625 L11.5467135,22 L23.2702357,29.0282374 L30.7351664,18.6755687 L39.875,26.63375 L39.875,6.875 C39.875,6.11560847 39.2593915,5.5 38.5,5.5 Z M31.625,8.25 C33.9031746,8.25 35.75,10.0968254 35.75,12.375 C35.75,14.6531746 33.9031746,16.5 31.625,16.5 C29.3468254,16.5 27.5,14.6531746 27.5,12.375 C27.5,10.0968254 29.3468254,8.25 31.625,8.25 Z" fill="#1B8AFA"></path>
                </g>
            </g>
        </g>
    </g>
</svg>