<?xml version="1.0" encoding="UTF-8"?>
<svg width="32px" height="32px" viewBox="0 0 32 32" version="1.1" xmlns="http://www.w3.org/2000/svg" xmlns:xlink="http://www.w3.org/1999/xlink">
    <title>-mockplus-</title>
    <g id="帮助中心" stroke="none" stroke-width="1" fill="none" fill-rule="evenodd">
        <g id="横版默认-帮助中心-搜索" transform="translate(-100.000000, -22.000000)" fill="#C7CCD1">
            <g id="搜索" transform="translate(84.000000, 10.000000)">
                <g id="ai-search" transform="translate(16.000000, 12.000000)">
                    <path d="M15,2 C22.1797017,2 28,7.82029825 28,15 C28,18.2225942 26.8274168,21.171317 24.8856352,23.4427833 L29.709131,28.2949232 C30.0985341,28.6865655 30.096719,29.3197278 29.7050768,29.709131 C29.3569503,30.0552671 28.8179932,30.0922925 28.4290325,29.8211842 L28.290869,29.7050768 L23.4727281,24.8599583 C21.1972611,26.817075 18.236774,28 15,28 C7.82029825,28 2,22.1797017 2,15 C2,7.82029825 7.82029825,2 15,2 Z M15,4 C8.92486775,4 4,8.92486775 4,15 C4,21.0751322 8.92486775,26 15,26 C21.0751322,26 26,21.0751322 26,15 C26,8.92486775 21.0751322,4 15,4 Z"></path>
                </g>
            </g>
        </g>
    </g>
</svg>