<?xml version="1.0" encoding="UTF-8"?>
<svg width="56px" height="56px" viewBox="0 0 56 56" version="1.1" xmlns="http://www.w3.org/2000/svg" xmlns:xlink="http://www.w3.org/1999/xlink">
    <title>-mockplus-</title>
    <g id="帮助中心" stroke="none" stroke-width="1" fill="none" fill-rule="evenodd">
        <g id="横版默认-帮助中心-在线客服-是否解决-弹框4" transform="translate(-594.000000, -228.000000)">
            <g id="评价" transform="translate(0.000000, 96.000000)">
                <g id="评星" transform="translate(571.000000, 132.000000)">
                    <g id="ai-star" transform="translate(23.000000, 0.000000)">
                        <rect id="矩形" x="0" y="0" width="56" height="56"></rect>
                        <path d="M27.9998788,45.7305353 L13.7980705,53.1613074 C12.8859179,53.6385705 11.7577225,53.2895446 11.2781755,52.3817364 C11.0872173,52.0202424 11.0213224,51.6061798 11.090692,51.2036503 L13.8029961,35.4650224 L2.31349174,24.3188642 C1.57554479,23.6029696 1.56044507,22.4272475 2.27976556,21.6928152 C2.56620275,21.4003604 2.94152157,21.2100367 3.34761828,21.1513085 L19.2257228,18.8550736 L26.3266269,4.53559682 C26.7827032,3.61588664 27.9015665,3.23827621 28.825678,3.69218032 C29.1936641,3.87292732 29.4915188,4.1693634 29.6731307,4.53559682 L36.7740349,18.8550736 L52.6521394,21.1513085 C53.671957,21.2987908 54.3785523,22.2411369 54.2303641,23.2560974 C54.1713548,23.66026 53.9801203,24.0337912 53.686266,24.3188642 L42.1967616,35.4650224 L44.9090657,51.2036503 C45.0832713,52.2145097 44.4011079,53.174522 43.3854111,53.3478979 C42.9809553,53.4169372 42.5649112,53.3513561 42.2016872,53.1613074 L27.9998788,45.7305353 Z" fill="#FA8A1B"></path>
                    </g>
                </g>
            </g>
        </g>
    </g>
</svg>