<?xml version="1.0" encoding="UTF-8"?>
<svg width="56px" height="56px" viewBox="0 0 56 56" version="1.1" xmlns="http://www.w3.org/2000/svg" xmlns:xlink="http://www.w3.org/1999/xlink">
    <title>-mockplus-</title>
    <g id="帮助中心" stroke="none" stroke-width="1" fill="none" fill-rule="evenodd">
        <g id="竖版默认-帮助中心-详情" transform="translate(-465.000000, -798.000000)">
            <g id="点赞点踩" transform="translate(24.000000, 782.000000)">
                <g id="ai-thumb-up" transform="translate(441.000000, 16.000000)">
                    <rect id="矩形" x="0" y="0" width="56" height="56"></rect>
                    <path d="M11.0051537,21.2871679 C11.9320536,21.2871679 12.7029542,21.9550798 12.8628223,22.8358699 L12.8932419,23.1752562 L12.8932419,52.7010133 C12.8932419,53.6279131 12.2253301,54.3988138 11.3445399,54.5586819 L11.0051537,54.5891015 L6.116204,54.5891015 C5.25,54.5891015 4.51027209,54.0031295 4.29269981,53.1914886 L4.23635875,52.8772488 L1.75824297,23.3514917 L1.75,23.1752562 C1.75,22.2483563 2.41791181,21.4774556 3.29870197,21.3175876 L3.63808822,21.2871679 L11.0051537,21.2871679 Z M27.8732747,4.34917087 C27.8542562,2.18125818 28.8280931,0.901472544 34.6202966,2.39873342 C39.454069,4.45042524 40.9159736,10.1670864 39.0060105,19.5487169 L38.7799163,20.6062025 L52.4466197,20.6078237 L52.860414,20.671098 C53.6168782,20.8743089 54.1721854,21.5302419 54.2477831,22.3098687 L54.25,22.6506083 L51.9974429,52.8573309 C51.9251635,53.727363 51.2707057,54.418984 50.436362,54.5619364 L50.1158367,54.5891015 L18.5461663,54.5891015 C17.6192664,54.5891015 16.8483657,53.9211897 16.6884977,53.0403995 L16.6580781,52.7010133 L16.6580781,20.6062025 C19.1557459,20.6062025 26.5752057,15.6250242 27.9979477,9.84912952 C28.1356373,9.29015212 28.1777336,8.70470477 28.1697339,8.11525255 L28.1467206,7.52529742 L28.0924945,6.85419774 L27.898243,4.93361787 L27.8732747,4.34917087 Z" fill="#1B8AFA"></path>
                </g>
            </g>
        </g>
    </g>
</svg>