<?xml version="1.0" encoding="UTF-8"?>
<svg width="56px" height="56px" viewBox="0 0 56 56" version="1.1" xmlns="http://www.w3.org/2000/svg" xmlns:xlink="http://www.w3.org/1999/xlink">
    <title>-mockplus-</title>
    <g id="帮助中心" stroke="none" stroke-width="1" fill="none" fill-rule="evenodd">
        <g id="竖版默认-帮助中心-详情" transform="translate(-229.000000, -798.000000)">
            <g id="点赞点踩" transform="translate(24.000000, 782.000000)">
                <g id="ai-thumb-down" transform="translate(205.000000, 16.000000)">
                    <rect id="矩形" x="0" y="0" width="56" height="56"></rect>
                    <path d="M11.0051537,34.8382143 C11.9320536,34.8382143 12.7029542,34.1745889 12.8628223,33.2994513 L12.8932419,32.9622431 L12.8932419,3.62597118 C12.8932419,2.70501982 12.2253301,1.93906649 11.3445399,1.78022441 L11.0051537,1.75 L6.116204,1.75 C5.25,1.75 4.51027209,2.33221151 4.29269981,3.13864355 L4.23635875,3.4508667 L1.75824297,32.7871386 L1.75,32.9622431 C1.75,33.8831944 2.41791181,34.6491478 3.29870197,34.8079899 L3.63808822,34.8382143 L11.0051537,34.8382143 Z M27.8732747,51.6675096 C27.8542562,53.8215095 28.8280931,55.0930819 34.6202966,53.6054299 C39.454069,51.5669051 40.9159736,45.8869313 39.0060105,36.5655086 L38.7799163,35.5148095 L52.4466197,35.5131987 L52.860414,35.4503305 C53.6168782,35.2484237 54.1721854,34.5967003 54.2477831,33.8220768 L54.25,33.483524 L51.9974429,3.47065681 C51.9251635,2.60620815 51.2707057,1.9190258 50.436362,1.77699082 L50.1158367,1.75 L18.5461663,1.75 C17.6192664,1.75 16.8483657,2.41362541 16.6884977,3.28876298 L16.6580781,3.62597118 L16.6580781,35.5148095 C19.1557459,35.5148095 26.5752057,40.4640205 27.9979477,46.2028476 C28.1356373,46.7582377 28.1777336,47.3399279 28.1697339,47.9255973 L28.1467206,48.5117663 L28.0924945,49.1785591 L27.898243,51.0868134 L27.8732747,51.6675096 Z" fill="#1B8AFA"></path>
                </g>
            </g>
        </g>
    </g>
</svg>